<svg xmlns="http://www.w3.org/2000/svg" viewBox="0 0 43.232 69.465">
<path fill="#FFFFFF" d="M10.342,13.34l4.866,0.476V0h-4.866V13.34z M0.537,12.38l0.922,0.095V0H0.536L0.537,12.38L0.537,12.38z
	 M18.682,14.154l2.934,0.288l2.932-0.288V0h-5.865V14.154z M4.397,12.758l3.017,0.294V0H4.397V12.758z M41.77,0v12.476l0.15-0.016
	l0.846-0.08V0H41.77L41.77,0z M28.024,13.816l4.863-0.471V0h-4.863V13.816z M35.82,13.058l3.014-0.292V0H35.82V13.058z"/>
<path fill="#FFFFFE" d="M10.342,43.23h4.866V29.42l-4.866,0.479V43.23z M0.537,43.23h0.922V30.767l-0.923,0.09L0.537,43.23
	L0.537,43.23z M18.682,43.23h5.865V29.083l-2.932-0.285l-2.934,0.285v14.15V43.23z M4.397,43.23h3.017V30.186L4.397,30.48V43.23z
	 M42.767,43.23V30.857l-0.847-0.083l-0.15-0.013v12.473h0.996L42.767,43.23z M28.024,43.23h4.863V29.895l-4.863-0.476V43.23z
	 M35.82,43.23h3.014V30.473l-3.014-0.292V43.23L35.82,43.23z"/>
<path fill="#FFFFFF" d="M0,27.816h2.008V15.42H0V27.816z M3.934,27.816h3.942V15.42H3.934V27.816z M9.804,27.816h5.938V15.42H9.804
	V27.816z M17.674,27.816h7.884V15.42h-7.885L17.674,27.816L17.674,27.816z M27.478,27.816h5.95V15.42h-5.95V27.816z M35.358,27.816
	h3.938V15.42h-3.938V27.816z M41.224,27.816h2.01V15.42h-2.01V27.816z M0,54.69h5.657v14.492h2.31v-14.49h5.66V52.68H0V54.69z
	 M15.117,54.69h5.659v14.492h2.311v-14.49h5.656V52.68H15.117V54.69z M40.917,52.68v10.614c0,2.568-1.658,4.044-4.206,4.044
	c-2.521,0-4.157-1.477-4.157-4V52.68h-2.316V63.34c0,3.67,2.644,6.125,6.5,6.125c3.854,0,6.497-2.455,6.497-6.126V52.68H40.917
	L40.917,52.68z M39.434,52.68h-1.868v2.362h1.868V52.68z M35.904,52.68h-1.869v2.362h1.869V52.68z"/>
</svg>
